#!OML:ASF E:\acrobat2\Project_11_07_03\Capture day 1\Session 1\Acrobat.ASF
:FULLY-SPECIFIED
:DEGREES
153
root 8.30996 18.3986 5.98444 4.29195 0.968066 -0.211688
lowerback -5.31463 0.447018 0.678216
upperback -3.81383 0.56651 -1.01539
thorax -0.924589 0.259749 -1.39766
lowerneck 5.71072 -7.0932 -6.57585
upperneck 6.79367 -10.0421 5.64986
head 1.87149 -5.1269 2.92953
rclavicle -1.46852e-014 -1.74931e-014
rhumerus -41.6139 -4.29954 -80.4419
rradius 25.8114
rwrist -0.0838806
rhand -3.99707 -35.723
rfingers 7.12502
rthumb 21.7568 -64.5202
lclavicle -1.46852e-014 -1.74931e-014
lhumerus -34.9673 -9.48581 86.0945
lradius 21.4375
lwrist 12.9089
lhand -10.932 -9.97899
lfingers 7.12502
lthumb 15.086 19.4513
rfemur 3.9272 5.94239 20.2052
rtibia 1.57827
rfoot -20.8643 -26.1895
rtoes 3.10612
lfemur 1.20175 3.81688 -14.2735
ltibia 2.92407
lfoot -5.9422 -4.16187
ltoes 35.1209
154
root 8.31204 18.3977 5.98218 4.30897 0.940928 -0.288808
lowerback -5.39947 0.421712 0.685703
upperback -3.69682 0.532785 -1.00002
thorax -0.757933 0.244368 -1.38634
lowerneck 5.81193 -7.50136 -6.67349
upperneck 6.39767 -10.5897 5.75678
head 1.77538 -5.40253 2.98421
rclavicle -1.66482e-015 2.18663e-014
rhumerus -41.4272 -4.11966 -80.6345
rradius 26.0353
rwrist 0.139276
rhand -4.217 -35.4904
rfingers 7.12502
rthumb 21.5456 -64.3119
lclavicle -1.66482e-015 2.18663e-014
lhumerus -34.8874 -9.47516 86.0259
lradius 21.5078
lwrist 12.6748
lhand -11.0949 -10.2151
lfingers 7.12502
lthumb 14.929 19.2269
rfemur 3.90171 5.85481 20.2676
rtibia 1.56848
rfoot -20.8241 -26.0868
rtoes 3.14833
lfemur 1.18719 3.73851 -14.2142
ltibia 2.91647
lfoot -6.1019 -4.11075
ltoes 34.621
155
root 8.31383 18.3964 5.98007 4.33843 0.905851 -0.3364
lowerback -5.51274 0.402133 0.680817
upperback -3.58929 0.507054 -0.997475
thorax -0.585066 0.233047 -1.38089
lowerneck 6.33828 -8.14407 -6.83246
upperneck 5.52564 -11.4548 5.77289
head 1.47154 -5.84381 3.04551
rclavicle 3.47873e-016 2.38542e-015
rhumerus -41.2729 -3.9242 -80.8101
rradius 26.2597
rwrist 0.275769
rhand -4.49865 -35.2881
rfingers 7.12502
rthumb 21.2751 -64.1404
lclavicle 3.47873e-016 2.38542e-015
lhumerus -34.7875 -9.57315 86.0218
lradius 21.5095
lwrist 12.5776
lhand -11.197 -10.5575
lfingers 7.12502
lthumb 14.8307 18.8918
rfemur 3.86167 5.82787 20.3071
rtibia 1.55985
rfoot -20.7388 -26.0888
rtoes 2.78526
lfemur 1.15671 3.65909 -14.1898
ltibia 2.91474
lfoot -6.2007 -4.11646
ltoes 34.5658
156
root 8.31612 18.3944 5.97728 4.38594 0.872789 -0.35408
lowerback -5.54868 0.352056 0.624203
upperback -3.58231 0.442727 -0.959499
thorax -0.560408 0.202281 -1.31303
lowerneck 6.98369 -8.69963 -6.85495
upperneck 4.70275 -12.1932 5.4401
head 1.12274 -6.21945 2.98212
rclavicle 4.82053e-015 2.10712e-014
rhumerus -41.1842 -3.6051 -80.9372
rradius 26.3508
rwrist 0.293765
rhand -4.71217 -35.0052
rfingers 7.12502
rthumb 21.0699 -63.8805
lclavicle 4.82053e-015 2.10712e-014
lhumerus -34.888 -9.67614 86.1248
lradius 21.5684
lwrist 12.6697
lhand -11.2749 -10.7631
lfingers 7.12502
lthumb 14.7557 18.6917
rfemur 3.80086 5.88642 20.3234
rtibia 1.55175
rfoot -20.6892 -26.1345
rtoes 2.557
lfemur 1.1223 3.51607 -14.2067
ltibia 2.8761
lfoot -6.27857 -4.10589
ltoes 34.8765
157
root 8.316 18.3925 5.97591 4.42742 0.807704 -0.397478
lowerback -5.58845 0.321565 0.542293
upperback -3.57986 0.405574 -0.900701
thorax -0.537652 0.185675 -1.20829
lowerneck 7.2341 -9.13882 -6.82679
upperneck 4.32475 -12.7712 5.15017
head 0.974213 -6.50836 2.89902
rclavicle 9.11925e-015 6.75868e-015
rhumerus -41.06 -3.33049 -81.0301
rradius 26.3937
rwrist 0.326949
rhand -4.80972 -35.0049
rfingers 7.12502
rthumb 20.9762 -63.8906
lclavicle 9.11925e-015 6.75868e-015
lhumerus -34.9422 -9.6067 86.1689
lradius 21.6297
lwrist 12.6475
lhand -11.2007 -10.6677
lfingers 7.12502
lthumb 14.8271 18.7818
rfemur 3.78664 6.1644 20.4212
rtibia 1.48391
rfoot -20.7449 -26.3228
rtoes 2.65268
lfemur 1.11386 3.34638 -14.1804
ltibia 2.80365
lfoot -6.4297 -3.98254
ltoes 34.8573
158
root 8.31666 18.3922 5.97414 4.47001 0.777086 -0.441956
lowerback -5.64399 0.27727 0.497323
upperback -3.56732 0.348502 -0.856191
thorax -0.495779 0.158476 -1.13992
lowerneck 7.51812 -9.41059 -7.17177
upperneck 4.12918 -13.1788 5.4836
head 0.9411 -6.72151 3.08518
rclavicle 1.81391e-015 -7.95139e-016
rhumerus -40.9781 -3.04922 -81.1572
rradius 26.5268
rwrist 0.334149
rhand -4.94246 -35.1661
rfingers 7.12502
rthumb 20.8487 -64.0659
lclavicle 1.81391e-015 -7.95139e-016
lhumerus -34.8989 -9.3921 86.1248
lradius 21.5898
lwrist 12.5311
lhand -11.1168 -10.651
lfingers 7.12502
lthumb 14.908 18.7925
rfemur 3.78371 6.29681 20.4844
rtibia 1.33126
rfoot -20.5379 -26.5087
rtoes 2.05932
lfemur 1.06711 3.29174 -14.1456
ltibia 2.79863
lfoot -6.47733 -3.92949
ltoes 34.9282
159
root 8.31964 18.3935 5.96917 4.54244 0.754023 -0.420556
lowerback -5.67372 0.213154 0.444821
upperback -3.59356 0.265335 -0.855074
thorax -0.508458 0.117513 -1.11354
lowerneck 8.02217 -9.5973 -7.51452
upperneck 3.77899 -13.4837 5.87976
head 0.819812 -6.8863 3.31381
rclavicle -3.77691e-015 -1.82882e-014
rhumerus -40.9491 -2.72557 -81.3198
rradius 26.634
rwrist 0.253525
rhand -5.22948 -35.0093
rfingers 7.12502
rthumb 20.5729 -63.9391
lclavicle -3.77691e-015 -1.82882e-014
lhumerus -34.9767 -9.24651 86.0755
lradius 21.6001
lwrist 12.546
lhand -11.054 -10.6988
lfingers 7.12502
lthumb 14.9685 18.7403
rfemur 3.6859 6.26674 20.416
rtibia 1.25571
rfoot -20.3162 -26.5525
rtoes 1.67978
lfemur 0.967379 3.23646 -14.1979
ltibia 2.81945
lfoot -6.47456 -3.92945
ltoes 35.5117
160
root 8.3201 18.394 5.96375 4.65234 0.662163 -0.378458
lowerback -5.76053 0.149126 0.291309
upperback -3.61012 0.186921 -0.816782
thorax -0.47956 0.081082 -0.991936
lowerneck 8.57505 -9.91207 -7.76368
upperneck 3.17978 -13.9416 5.99186
head 0.59312 -7.12289 3.44497
rclavicle -5.96354e-015 -2.14687e-014
rhumerus -40.8008 -2.45278 -81.4009
rradius 26.6378
rwrist 0.203712
rhand -5.4456 -34.888
rfingers 7.12502
rthumb 20.3652 -63.8402
lclavicle -5.96354e-015 -2.14687e-014
lhumerus -35.0791 -8.99406 86.0282
lradius 21.693
lwrist 12.5256
lhand -10.9367 -10.6377
lfingers 7.12502
lthumb 15.0814 18.7929
rfemur 3.52116 6.40034 20.3604
rtibia 1.32968
rfoot -20.551 -26.5113
rtoes 2.56248
lfemur 0.837046 3.16436 -14.2595
ltibia 2.80967
lfoot -6.57863 -3.8588
ltoes 35.4733
161
root 8.32038 18.3942 5.95859 4.74273 0.56756 -0.316663
lowerback -5.8692 0.0878104 0.103668
upperback -3.59655 0.114211 -0.765254
thorax -0.407009 0.0483117 -0.837411
lowerneck 9.10538 -10.4406 -8.06743
upperneck 2.56236 -14.6883 5.90809
head 0.376896 -7.49979 3.51995
rclavicle 1.76421e-015 6.75868e-015
rhumerus -40.5667 -2.34448 -81.3993
rradius 26.5639
rwrist 0.2593
rhand -5.29043 -35.1116
rfingers 7.12502
rthumb 20.5143 -64.0478
lclavicle 1.76421e-015 6.75868e-015
lhumerus -35.107 -8.66781 85.9678
lradius 21.747
lwrist 12.4609
lhand -10.8736 -10.6861
lfingers 7.12502
lthumb 15.1423 18.7399
rfemur 3.35491 6.38394 20.2572
rtibia 1.44637
rfoot -20.6232 -26.375
rtoes 2.78177
lfemur 0.732507 3.10526 -14.3483
ltibia 2.7916
lfoot -6.70009 -3.77597
ltoes 35.0565
162
root 8.32294 18.3949 5.95582 4.76298 0.518534 -0.291396
lowerback -5.9018 0.0330249 0.0273052
upperback -3.56338 0.0451824 -0.759034
thorax -0.355876 0.0151264 -0.791876
lowerneck 9.21369 -10.9419 -8.20579
upperneck 2.43895 -15.3725 5.77479
head 0.372571 -7.84136 3.5026
rclavicle 1.9133e-015 -6.36111e-015
rhumerus -40.3755 -2.34325 -81.4439
rradius 26.486
rwrist 0.390956
rhand -5.03651 -35.3176
rfingers 7.12502
rthumb 20.7583 -64.2273
lclavicle 1.9133e-015 -6.36111e-015
lhumerus -35.107 -8.56214 85.9057
lradius 21.7395
lwrist 12.6846
lhand -10.9325 -10.8767
lfingers 7.12502
lthumb 15.0855 18.5536
rfemur 3.29029 6.25779 20.1792
rtibia 1.48831
rfoot -20.4246 -26.2461
rtoes 2.33012
lfemur 0.719966 3.0856 -14.4013
ltibia 2.78776
lfoot -6.73633 -3.73628
ltoes 34.9313
163
root 8.32625 18.3959 5.95649 4.76651 0.489115 -0.294675
lowerback -5.92634 -0.0421507 -0.0154742
upperback -3.51481 -0.0524736 -0.750195
thorax -0.293576 -0.0328617 -0.764175
lowerneck 9.1089 -11.3071 -8.2818
upperneck 2.50039 -15.86 5.64853
head 0.444462 -8.08336 3.45515
rclavicle -7.8023e-015 -9.93923e-015
rhumerus -40.2505 -2.23191 -81.5433
rradius 26.5112
rwrist 0.4451
rhand -5.04759 -35.1861
rfingers 7.12502
rthumb 20.7477 -64.097
lclavicle -7.8023e-015 -9.93923e-015
lhumerus -35.0929 -8.33042 85.7662
lradius 21.651
lwrist 12.7372
lhand -11.1104 -11.2377
lfingers 7.12502
lthumb 14.9141 18.2054
rfemur 3.31136 6.19028 20.1462
rtibia 1.43585
rfoot -20.3464 -26.1364
rtoes 2.48441
lfemur 0.740135 3.1261 -14.4171
ltibia 2.77889
lfoot -6.71046 -3.72286
ltoes 34.974
164
root 8.33098 18.3974 5.9566 4.81449 0.468826 -0.220195
lowerback -5.95251 -0.130499 -0.123039
upperback -3.50892 -0.164663 -0.754757
thorax -0.27418 -0.0874811 -0.714809
lowerneck 8.88777 -11.6652 -8.29245
upperneck 2.71702 -16.3258 5.38929
head 0.566529 -8.31262 3.33726
rclavicle 1.54555e-014 1.66979e-014
rhumerus -40.1661 -1.97437 -81.6601
rradius 26.588
rwrist 0.27039
rhand -4.99024 -35.29
rfingers 7.12502
rthumb 20.8028 -64.1949
lclavicle 1.54555e-014 1.66979e-014
lhumerus -35.161 -7.96106 85.6014
lradius 21.5648
lwrist 12.49
lhand -11.2387 -11.5449
lfingers 7.12502
lthumb 14.7905 17.9073
rfemur 3.26177 6.02674 19.9896
rtibia 1.36364
rfoot -20.1539 -26.0381
rtoes 2.35894
lfemur 0.719659 3.17637 -14.5454
ltibia 2.73486
lfoot -6.64686 -3.74478
ltoes 35.3355
165
root 8.33209 18.3965 5.95548 4.87956 0.435628 -0.267798
lowerback -6.03699 -0.177209 -0.146439
upperback -3.47417 -0.225087 -0.723368
thorax -0.192015 -0.116985 -0.673219
lowerneck 8.88079 -12.021 -8.14583
upperneck 2.61139 -16.7805 5.1916
head 0.53653 -8.53448 3.24565
rclavicle 1.19271e-014 7.95139e-016
rhumerus -39.8956 -1.80686 -81.7114
rradius 26.4751
rwrist 0.0332665
rhand -4.73224 -35.8211
rfingers 7.12502
rthumb 21.0507 -64.6985
lclavicle 1.19271e-014 7.95139e-016
lhumerus -35.193 -7.8207 85.5587
lradius 21.6444
lwrist 12.6174
lhand -11.1521 -11.1384
lfingers 7.12502
lthumb 14.874 18.3077
rfemur 3.14817 6.01177 20.0279
rtibia 1.3649
rfoot -19.9498 -26.0823
rtoes 1.5931
lfemur 0.678604 3.27311 -14.4804
ltibia 2.6892
lfoot -6.58814 -3.74675
ltoes 34.891
166
root 8.33023 18.3938 5.95502 4.89964 0.393441 -0.420753
lowerback -6.16889 -0.202275 -0.10431
upperback -3.39909 -0.259704 -0.663276
thorax -0.0418521 -0.134109 -0.637893
lowerneck 9.3875 -12.2861 -8.49152
upperneck 2.15615 -17.196 5.64474
head 0.409462 -8.75264 3.50084
rclavicle -1.9133e-015 -3.97569e-015
rhumerus -39.5974 -1.66066 -81.778
rradius 26.2756
rwrist -0.17754
rhand -4.65999 -36.1473
rfingers 7.12502
rthumb 21.1201 -65.017
lclavicle -1.9133e-015 -3.97569e-015
lhumerus -35.2071 -7.70651 85.5066
lradius 21.8397
lwrist 12.825
lhand -10.9655 -10.405
lfingers 7.12502
lthumb 15.0537 19.0277
rfemur 3.08012 6.04007 20.2249
rtibia 1.48291
rfoot -19.9805 -26.0272
rtoes 1.27784
lfemur 0.69492 3.38481 -14.2421
ltibia 2.62436
lfoot -6.5164 -3.74972
ltoes 34.6393
167
root 8.33231 18.3931 5.95326 4.90975 0.364536 -0.463931
lowerback -6.19987 -0.24156 -0.123571
upperback -3.38608 -0.31086 -0.646523
thorax -0.0116074 -0.159285 -0.613144
lowerneck 9.55616 -12.5699 -8.66021
upperneck 2.13694 -17.604 5.74108
head 0.432893 -8.9617 3.56509
rclavicle 1.12065e-014 5.96354e-015
rhumerus -39.4796 -1.43914 -81.9083
rradius 26.1858
rwrist -0.370873
rhand -4.77647 -36.2704
rfingers 7.12502
rthumb 21.0082 -65.1526
lclavicle 1.12065e-014 5.96354e-015
lhumerus -35.3751 -7.47711 85.4225
lradius 21.9745
lwrist 12.6958
lhand -10.9923 -10.1609
lfingers 7.12502
lthumb 15.0279 19.2737
rfemur 3.01791 5.85402 20.2269
rtibia 1.60751
rfoot -20.0181 -25.7665
rtoes 1.58702
lfemur 0.717454 3.47562 -14.1741
ltibia 2.56104
lfoot -6.40771 -3.81942
ltoes 35.4338
